<svg height="85" viewBox="0 0 246 85" width="246" xmlns="http://www.w3.org/2000/svg"><g fill="#fff"><path d="m118.1 52.2v1.1c0 .9-.7 1.6-1.6 1.6h-22.8v-25.4h21.8c.8 0 1.5.7 1.5 1.5v1.2c0 .8-.7 1.5-1.5 1.5h-17.1v6h15.7c.9 0 1.7.8 1.7 1.7v.8c0 .9-.8 1.7-1.7 1.7h-15.7v6.6h18c1 .1 1.7.9 1.7 1.7z"/><path d="m116.5 55.4h-22.8c-.3 0-.5-.2-.5-.5v-25.4c0-.3.2-.5.5-.5h21.8c1.1 0 2 .9 2 2v1.2c0 1.1-.9 2-2 2h-16.5v5h15.2c1.2 0 2.2 1 2.2 2.2v.8c0 1.2-1 2.2-2.2 2.2h-15.2v5.6h17.5c1.2 0 2.1.9 2.1 2.1v1.1c0 1.3-.9 2.2-2.1 2.2zm-22.3-1h22.3c.6 0 1.1-.5 1.1-1.1v-1.1c0-.6-.5-1.1-1.1-1.1h-18c-.3 0-.5-.2-.5-.5v-6.6c0-.3.2-.5.5-.5h15.7c.6 0 1.2-.5 1.2-1.2v-.8c0-.6-.5-1.2-1.2-1.2h-15.7c-.3 0-.5-.2-.5-.5v-6c0-.3.2-.5.5-.5h17.1c.6 0 1-.5 1-1v-1.2c0-.6-.5-1-1-1h-21.3v24.3z"/><path d="m148.5 54.9h-3.9c-.5 0-1-.2-1.4-.6l-15.9-18.8v18.2c0 .7-.5 1.2-1.2 1.2h-2.5c-.7 0-1.2-.5-1.2-1.2v-23.4c0-.4.3-.7.7-.7h5.3c.1 0 .3.1.3.2l16.3 19.1v-18.1c0-.6.5-1.2 1.2-1.2h2.4c.6 0 1.2.5 1.2 1.2v22.8c0 .7-.6 1.3-1.3 1.3z"/><path d="m148.4 55.4h-3.8c-.7 0-1.3-.3-1.8-.8l-15-17.7v16.9c0 .9-.8 1.7-1.7 1.7h-2.5c-.9 0-1.7-.8-1.7-1.7v-23.4c0-.6.5-1.1 1.1-1.1h5.6c.1 0 .3.1.4.2l15.6 18.3v-16.8c0-.9.7-1.7 1.7-1.7h2.4c.9 0 1.7.7 1.7 1.7v22.6c-.1 1-.9 1.8-2 1.8zm-3.6-1h3.2c.7 0 1.2-.5 1.2-1.2v-22.3c0-.4-.3-.7-.7-.7h-2.4c-.4 0-.7.3-.7.7v18.1c0 .2-.1.4-.3.5s-.4 0-.6-.1l-16.2-18.9c-.1-.1-.2-.2-.4-.2h-4.6c-.3 0-.6.3-.6.6v22.9c0 .4.3.7.7.7h2.5c.4 0 .7-.3.7-.7v-18.2c0-.2.1-.4.3-.5s.4 0 .6.1l15.8 18.6c.5.4 1 .6 1.5.6z"/><path d="m184.7 42c0 7.2-4.7 12.9-13.8 12.9h-12.6c-1.3 0-2.3-1-2.3-2.3v-20.7c0-1.3 1-2.3 2.3-2.3h12.6c9 0 13.8 5.3 13.8 12.4zm-4.8 0c0-6.8-5.2-8.2-10.1-8.2h-6.8c-1.3 0-2.3 1-2.3 2.3v12.1c0 1.3 1 2.3 2.3 2.3h6.8c4.9.1 10.1-1.6 10.1-8.5z"/><path d="m170.8 55.4h-12.6c-1.6 0-2.8-1.3-2.8-2.8v-20.7c0-1.6 1.3-2.8 2.8-2.8h12.6c8.8 0 14.3 5 14.3 13 .1 8.1-5.6 13.3-14.3 13.3zm-14.4-3.3c0 1.3 1 2.3 2.3 2.3h12.1c8.1 0 13.3-4.9 13.3-12.4 0-7.4-5.1-12-13.3-12h-12.1c-1.3 0-2.3 1-2.3 2.3zm13.5-1h-6.8c-1.6 0-2.8-1.3-2.8-2.8v-12.1c0-1.6 1.3-2.8 2.8-2.8h6.8c7 0 10.6 2.9 10.6 8.7-.1 5.8-3.8 9-10.6 9zm-8.7-3.3c0 1.3 1 2.3 2.3 2.3h6.3c4.4 0 9.6-1.4 9.6-8.1 0-5.2-3.1-7.7-9.6-7.7h-6.3c-1.3 0-2.3 1-2.3 2.3z"/><path d="m214.1 51.8v2c0 .6-.5 1.2-1.2 1.2h-22.4c-.5 0-.9-.4-.9-.9v-23.8c0-.4.3-.7.7-.7h21.5c.6 0 1.2.5 1.2 1.2v2c0 .6-.5 1.2-1.2 1.2h-17.5v6h16.2c.6 0 1.2.5 1.2 1.2v1.9c0 .6-.5 1.2-1.2 1.2h-16.2v6.6h18.5c.8-.3 1.3.3 1.3.9z"/><path d="m212.9 55.4h-22.4c-.8 0-1.4-.6-1.4-1.4v-23.8c0-.6.5-1.2 1.2-1.2h21.5c.9 0 1.7.7 1.7 1.7v2c0 .9-.7 1.7-1.7 1.7h-17v5h15.7c.9 0 1.7.7 1.7 1.7v1.9c0 .9-.7 1.7-1.7 1.7h-15.7v5.6h18c.9 0 1.7.7 1.7 1.7v2c.1.7-.7 1.4-1.6 1.4zm-21.8-1h21.4c.6 0 1.2-.5 1.2-1.2v-1c0-.6-.5-1.2-1.2-1.2h-18c-.3 0-.5-.2-.5-.5v-6.5c0-.3.2-.5.5-.5h15.7c.6 0 1.2-.5 1.2-1.2v-.9c0-.6-.5-1.2-1.2-1.2h-15.7c-.3 0-.5-.2-.5-.5v-6c0-.3.2-.5.5-.5h17c.6 0 1.2-.5 1.2-1.2v-1c0-.6-.5-1.2-1.2-1.2h-20.5c-.4 0-.7.3-.7.7v22.8c-.1.7.3 1.1.8 1.1z"/><path d="m218.4 53.7v-22.9c0-.6.5-1.1 1.1-1.1h15.3c6 0 8.9 3.3 8.9 7.6 0 3.8-2.1 6.8-6.6 7.5l6.7 8.7c.4.6 0 1.4-.7 1.4h-2.6c-1.1 0-2-.5-2.7-1.3l-6.2-8.1c-.2-.3-.6-.5-1-.5h-6c-.8 0-1.4.6-1.4 1.4v7.3c0 .6-.5 1.2-1.2 1.2h-2.5c-.6 0-1.1-.5-1.1-1.2zm4.8-20v7.2h11.4c2.8 0 4.6-1.3 4.6-3.7 0-2-1.8-3.6-4.6-3.6h-11.4z"/><path d="m244.8 55.4h-4.4c-1.2 0-2.3-.6-3.1-1.5l-6-7.9c-.2-.3-.6-.5-1-.5h-5.2c-.8 0-1.4.6-1.4 1.4v6.8c0 .9-.7 1.7-1.7 1.7h-2.5c-.9 0-1.7-.7-1.7-1.7v-22.9c0-.9.7-1.6 1.6-1.6h15.3c5.8 0 9.4 3.1 9.4 8.1 0 4-2.3 6.9-6.2 7.9l7.3 9.5c.1.2.1.4.1.5-.1.1-.3.2-.5.2zm-4.1-1h1.6c.6 0 .9-.7.6-1.2l-6.3-8.1c-.1-.1-.1-.3-.1-.5.1-.2.2-.3.4-.3 3.9-.7 6.2-3.2 6.2-7 0-4.4-3.1-7.1-8.4-7.1h-14.7c-.6 0-1.1.5-1.1 1.1v21.9c0 .6.5 1.2 1.2 1.2h1.5c.6 0 1.2-.5 1.2-1.2v-6.8c0-1 .8-1.9 1.9-1.9h6c.5 0 1.1.3 1.4.7l6 7.9c.6.8 1.6 1.3 2.6 1.3zm-6.1-13h-11.4c-.3 0-.5-.2-.5-.5v-7.2c0-.3.2-.5.5-.5h11.4c3 0 5.1 1.7 5.1 4.1 0 2.5-1.9 4.1-5.1 4.1zm-10.9-1h10.9c2.6 0 4.1-1.2 4.1-3.2 0-1.8-1.6-3.1-4.1-3.1h-10.9z"/><path d="m50.9 29.7c-1.6-.5-2.6 1-3.3 2.9-3.3 10.4-12.9 10.7-13.5 10.9-.3 0-2.4 5.2-2.4 5.2 17.4-.4 20.7-12.4 21.6-14.7.9-2.4-.8-3.8-2.4-4.3z"/><path d="m53.4 24c-.7.6-.5 1.7-.1 2.3.6.7.4-.7 1.1-1.3s1.8-.3 1.3-.8c-.4-.6-1.6-.8-2.3-.2z"/><path d="m78 39.3c0-21.5-17.4-38.9-38.9-38.9s-38.9 17.4-38.9 38.9c0 11.1 4.7 21.2 12.2 28.3.7-8.2 7.8-14 16.1-14.9.2 0 .2.1.1.3-2.3 2.6-3.8 5.1-4.8 7.5-3 5.8-4 14.9 12.9 21.1 12.5 4.6 8.3 2.4 2-3.4h.4c21.5.1 38.9-17.4 38.9-38.9zm-16.4 15.7c-1.7 0-3.3.2-4.5.5-.7.2-1.3.8-1.5 1.5-.3 1.2-.5 2.8-.5 4.5h-.1c0-1.7-.2-3.3-.5-4.5-.2-.7-.8-1.3-1.5-1.5-1.2-.3-2.8-.5-4.5-.5 1.7 0 3.3-.2 4.5-.5.7-.2 1.3-.8 1.5-1.5.3-1.2.5-2.8.5-4.5h.1c0 1.7.2 3.3.5 4.5.2.7.8 1.3 1.5 1.5 1.2.3 2.8.5 4.5.5zm-27.8-40.9c1.3 0 2.5-.1 3.4-.4.6-.1 1-.6 1.1-1.2.2-.9.3-2.1.3-3.4h.1c0 1.3.1 2.5.4 3.4.1.6.6 1 1.1 1.1.9.2 2.1.4 3.4.4-1.3 0-2.5.1-3.4.4-.6.1-1 .6-1.2 1.1-.2.9-.4 2.1-.4 3.4h-.1c0-1.3-.1-2.5-.3-3.4-.1-.6-.6-1-1.1-1.1-.8-.1-2-.2-3.3-.3zm-14.3 21.8c-1.5 0-2.8.1-3.9.4-.6.2-1.1.7-1.3 1.3-.3 1-.4 2.4-.4 3.9h-.1c0-1.5-.2-2.8-.4-3.9-.2-.6-.7-1.1-1.3-1.3-1-.3-2.4-.4-3.9-.4v-.1c1.5 0 2.8-.2 3.9-.4.6-.2 1.1-.7 1.3-1.3.3-1 .4-2.4.4-3.9h.2c0 1.5.2 2.8.4 3.9.2.6.7 1.1 1.3 1.3 1 .3 2.4.5 3.8.5zm15.2 15.1c.5 1.5.1 5.2-1 7.1-.1.2-.5.2-.5 0-.7-1.9-3.3-8-8.9-10.2-.3-.1-.3-.5 0-.6 2.8-1.2 5-.6 5.7-.6.1-.9.6-2.4.7-3-1.8-1.1-6.1-2.5-6.6-2.8s10.7-5.6 15.5-10.3c12.2-10.8 18.8-9.4 22.8-8.7-1.1.3-4.1 2.4-6.2 10.8-4.7 18.7-21.5 17.6-21.5 18.3z"/></g></svg>