<?xml version="1.0" encoding="utf-8"?>
<svg viewBox="0 0 1479 678" xmlns="http://www.w3.org/2000/svg">
  <g fill="none" fill-rule="evenodd">
    <g opacity=".56064" transform="translate(533 -1)">
      <g fill="#66c4fa">
        <path d="m927.9619 589.6961h1v-262.846c0-.243-.09-.478-.25-.661l-66.72-75.613c-.27-.312-.71-.421-1.1-.273-.39.147-.65.518-.65.935v340.186c0 .271.11.527.3.716.2.189.46.29.73.283341l66.71-1.728341c.55-.014.98-.457.98-.999h-1l-.03-1.001-65.69 1.703v-336.516l64.72 73.347v262.467h1l-.03-1.001z"/>
        <path d="m861.5319 571.6531h66.14"/>
        <path d="m861.5319 572.6531h66.14c.55 0 1-.448 1-1 0-.553-.45-1-1-1h-66.14c-.55 0-1 .447-1 1 0 .552.45 1 1 1"/>
        <path d="m861.5319 539.9521h66.14"/>
        <path d="m861.5319 540.9521h66.14c.55 0 1-.447 1-1 0-.552-.45-1-1-1h-66.14c-.55 0-1 .448-1 1 0 .553.45 1 1 1"/>
        <path d="m861.5319 508.2521h66.14"/>
        <path d="m861.5319 509.2521h66.14c.55 0 1-.448 1-1s-.45-1-1-1h-66.14c-.55 0-1 .448-1 1s.45 1 1 1"/>
        <path d="m861.5319 476.5521h66.14"/>
        <path d="m861.5319 477.5521h66.14c.55 0 1-.448 1-1 0-.553-.45-1-1-1h-66.14c-.55 0-1 .447-1 1 0 .552.45 1 1 1"/>
        <path d="m861.5319 444.8511h66.14"/>
        <path d="m861.5319 445.8511h66.14c.55 0 1-.447 1-1 0-.552-.45-1-1-1h-66.14c-.55 0-1 .448-1 1 0 .553.45 1 1 1"/>
        <path d="m861.5319 413.1511h66.14"/>
        <path d="m861.5319 414.1511h66.14c.55 0 1-.448 1-1s-.45-1-1-1h-66.14c-.55 0-1 .448-1 1s.45 1 1 1"/>
        <path d="m861.5319 381.4511h66.14"/>
        <path d="m861.5319 382.4511h66.14c.55 0 1-.448 1-1s-.45-1-1-1h-66.14c-.55 0-1 .448-1 1s.45 1 1 1"/>
        <path d="m861.5319 349.7511h66.14"/>
        <path d="m861.5319 350.7511h66.14c.55 0 1-.448 1-1 0-.553-.45-1-1-1h-66.14c-.55 0-1 .447-1 1 0 .552.45 1 1 1"/>
        <path d="m927.9619 326.8511h-66.72"/>
        <path d="m927.9619 325.8511h-66.72c-.55 0-1 .447-1 1 0 .552.45 1 1 1h66.72c.55 0 1-.448 1-1 0-.553-.45-1-1-1"/>
        <path d="m1042.5419 458.0511v-1h-180.3v-74.021h179.3v75.021h1v-1 1h1v-76.02c0-.268-.11-.519-.3-.708s-.44-.293-.7-.293h-181.3c-.26 0-.52.107-.71.293-.18.187-.29.444-.29.708v76.02c0 .263.11.521.29.707.19.186.45.293.71.293h181.3c.26 0 .51-.104.7-.293s.3-.44.3-.707z"/>
        <path d="m1042.5419 458.0511v-1h-180.3v-56.158h179.3v57.158h1v-1 1h1v-58.158c0-.267-.11-.518-.3-.707s-.44-.293-.7-.293h-181.3c-.26 0-.52.107-.71.293-.18.186-.29.443-.29.707v58.158c0 .263.11.521.29.707.19.186.45.293.71.293h181.3c.26 0 .51-.104.7-.293s.3-.44.3-.707z"/>
        <path d="m847.9019 591.0871v1h207.98c.27 0 .52-.104.71-.293s.29-.44.29-.707v-171.046c0-.267-.1-.518-.29-.707s-.44-.293-.71-.293h-207.98c-.27 0-.53.106-.71.293-.19.186-.29.443-.29.707v171.046c0 .263.1.521.29.707.18.186.44.293.71.293v-1h1v-170.046h205.98v169.046h-206.98v1h1z"/>
        <path d="m861.2419 447.0111h33.23"/>
        <path d="m861.2419 448.0111h33.23c.56 0 1-.447 1-1 0-.552-.44-1-1-1h-33.23c-.55 0-1 .448-1 1 0 .553.45 1 1 1"/>
        <path d="m861.2419 471.3591h33.23"/>
        <path d="m861.2419 472.3591h33.23c.56 0 1-.448 1-1 0-.553-.44-1-1-1h-33.23c-.55 0-1 .447-1 1 0 .552.45 1 1 1"/>
        <path d="m861.2419 495.7061h33.23"/>
        <path d="m861.2419 496.7061h33.23c.56 0 1-.447 1-1 0-.552-.44-1-1-1h-33.23c-.55 0-1 .448-1 1 0 .553.45 1 1 1"/>
        <path d="m910.6019 447.0111h33.23"/>
        <path d="m910.6019 448.0111h33.23c.55 0 1-.447 1-1 0-.552-.45-1-1-1h-33.23c-.56 0-1 .448-1 1 0 .553.44 1 1 1"/>
        <path d="m910.6019 471.3591h33.23"/>
        <path d="m910.6019 472.3591h33.23c.55 0 1-.448 1-1 0-.553-.45-1-1-1h-33.23c-.56 0-1 .447-1 1 0 .552.44 1 1 1"/>
        <path d="m910.6019 495.7061h33.23"/>
        <path d="m910.6019 496.7061h33.23c.55 0 1-.447 1-1 0-.552-.45-1-1-1h-33.23c-.56 0-1 .448-1 1 0 .553.44 1 1 1"/>
        <path d="m861.2419 515.5521h33.23"/>
        <path d="m861.2419 516.5521h33.23c.56 0 1-.448 1-1 0-.553-.44-1-1-1h-33.23c-.55 0-1 .447-1 1 0 .552.45 1 1 1"/>
        <path d="m861.2419 539.8991h33.23"/>
        <path d="m861.2419 540.8991h33.23c.56 0 1-.448 1-1s-.44-1-1-1h-33.23c-.55 0-1 .448-1 1s.45 1 1 1"/>
        <path d="m861.2419 564.2461h33.23"/>
        <path d="m861.2419 565.2461h33.23c.56 0 1-.447 1-1 0-.552-.44-1-1-1h-33.23c-.55 0-1 .448-1 1 0 .553.45 1 1 1"/>
        <path d="m910.6019 515.5521h33.23"/>
        <path d="m910.6019 516.5521h33.23c.55 0 1-.448 1-1 0-.553-.45-1-1-1h-33.23c-.56 0-1 .447-1 1 0 .552.44 1 1 1"/>
        <path d="m910.6019 539.8991h33.23"/>
        <path d="m910.6019 540.8991h33.23c.55 0 1-.448 1-1s-.45-1-1-1h-33.23c-.56 0-1 .448-1 1s.44 1 1 1"/>
        <path d="m910.6019 564.2461h33.23"/>
        <path d="m910.6019 565.2461h33.23c.55 0 1-.447 1-1 0-.552-.45-1-1-1h-33.23c-.56 0-1 .448-1 1 0 .553.44 1 1 1"/>
      </g>
      <path d="m737.6519 231.8141v-1h-98.42c-.26 0-.52.107-.7.294-.19.186-.29.443-.29.706v360.958c0 .263.1.521.29.707.18.186.44.293.7.293h98.42c.26 0 .52-.107.7-.293.19-.186.3-.444.3-.707v-360.958c0-.263-.11-.52-.3-.706-.18-.186-.44-.294-.7-.294v1h-1v359.958h-96.42v-358.957h97.42v-1.001h-1z" fill="#53ffb5"/>
      <path d="m688.4419 231.8151v360.957" fill="#66c4fa"/>
      <path d="m687.4419 231.8151v360.957c0 .552.45 1 1 1s1-.448 1-1v-360.957c0-.553-.45-1-1-1s-1 .447-1 1" fill="#66c4fa"/>
      <path d="m698.3019 253.5531h30.33" fill="#66c4fa"/>
      <path d="m698.3019 254.5531h30.33c.55 0 1-.448 1-1s-.45-1-1-1h-30.33c-.55 0-1 .448-1 1s.45 1 1 1" fill="#66c4fa"/>
      <path d="m698.3019 267.7081h30.33" fill="#66c4fa"/>
      <path d="m698.3019 268.7081h30.33c.55 0 1-.448 1-1s-.45-1-1-1h-30.33c-.55 0-1 .448-1 1s.45 1 1 1" fill="#66c4fa"/>
      <path d="m698.3019 281.8631h30.33" fill="#66c4fa"/>
      <path d="m698.3019 282.8631h30.33c.55 0 1-.448 1-1s-.45-1-1-1h-30.33c-.55 0-1 .448-1 1s.45 1 1 1" fill="#66c4fa"/>
      <path d="m698.3019 296.0181h30.33" fill="#66c4fa"/>
      <path d="m698.3019 297.0181h30.33c.55 0 1-.447 1-1 0-.552-.45-1-1-1h-30.33c-.55 0-1 .448-1 1 0 .553.45 1 1 1" fill="#66c4fa"/>
      <path d="m698.3019 310.1741h30.33" fill="#66c4fa"/>
      <path d="m698.3019 311.1741h30.33c.55 0 1-.448 1-1 0-.553-.45-1-1-1h-30.33c-.55 0-1 .447-1 1 0 .552.45 1 1 1" fill="#66c4fa"/>
      <path d="m698.3019 324.3291h30.33" fill="#66c4fa"/>
      <path d="m698.3019 325.3291h30.33c.55 0 1-.448 1-1s-.45-1-1-1h-30.33c-.55 0-1 .448-1 1s.45 1 1 1" fill="#66c4fa"/>
      <path d="m698.3019 338.4841h30.33" fill="#66c4fa"/>
      <path d="m698.3019 339.4841h30.33c.55 0 1-.448 1-1s-.45-1-1-1h-30.33c-.55 0-1 .448-1 1s.45 1 1 1" fill="#66c4fa"/>
      <path d="m648.2519 348.0891h30.33" fill="#66c4fa"/>
      <path d="m648.2519 349.0891h30.33c.56 0 1-.447 1-1 0-.552-.44-1-1-1h-30.33c-.55 0-1 .448-1 1 0 .553.45 1 1 1" fill="#66c4fa"/>
      <path d="m648.2519 362.2441h30.33" fill="#66c4fa"/>
      <path d="m648.2519 363.2441h30.33c.56 0 1-.447 1-1 0-.552-.44-1-1-1h-30.33c-.55 0-1 .448-1 1 0 .553.45 1 1 1" fill="#66c4fa"/>
      <path d="m648.2519 376.4001h30.33" fill="#66c4fa"/>
      <path d="m648.2519 377.4001h30.33c.56 0 1-.448 1-1 0-.553-.44-1-1-1h-30.33c-.55 0-1 .447-1 1 0 .552.45 1 1 1" fill="#66c4fa"/>
      <path d="m648.2519 390.5551h30.33" fill="#66c4fa"/>
      <path d="m648.2519 391.5551h30.33c.56 0 1-.448 1-1s-.44-1-1-1h-30.33c-.55 0-1 .448-1 1s.45 1 1 1" fill="#66c4fa"/>
      <path d="m648.2519 404.7101h30.33" fill="#66c4fa"/>
      <path d="m648.2519 405.7101h30.33c.56 0 1-.448 1-1s-.44-1-1-1h-30.33c-.55 0-1 .448-1 1s.45 1 1 1" fill="#66c4fa"/>
      <path d="m648.2519 418.8651h30.33" fill="#66c4fa"/>
      <path d="m648.2519 419.8651h30.33c.56 0 1-.447 1-1 0-.552-.44-1-1-1h-30.33c-.55 0-1 .448-1 1 0 .553.45 1 1 1" fill="#66c4fa"/>
      <path d="m648.2519 433.0201h30.33" fill="#66c4fa"/>
      <path d="m648.2519 434.0201h30.33c.56 0 1-.447 1-1 0-.552-.44-1-1-1h-30.33c-.55 0-1 .448-1 1 0 .553.45 1 1 1" fill="#66c4fa"/>
      <path d="m698.3019 446.2911h30.33" fill="#66c4fa"/>
      <path d="m698.3019 447.2911h30.33c.55 0 1-.448 1-1s-.45-1-1-1h-30.33c-.55 0-1 .448-1 1s.45 1 1 1" fill="#66c4fa"/>
      <path d="m698.3019 460.4461h30.33" fill="#66c4fa"/>
      <path d="m698.3019 461.4461h30.33c.55 0 1-.448 1-1s-.45-1-1-1h-30.33c-.55 0-1 .448-1 1s.45 1 1 1" fill="#66c4fa"/>
      <path d="m698.3019 474.6011h30.33" fill="#66c4fa"/>
      <path d="m698.3019 475.6011h30.33c.55 0 1-.447 1-1 0-.552-.45-1-1-1h-30.33c-.55 0-1 .448-1 1 0 .553.45 1 1 1" fill="#66c4fa"/>
      <path d="m698.3019 488.7561h30.33" fill="#66c4fa"/>
      <path d="m698.3019 489.7561h30.33c.55 0 1-.447 1-1 0-.552-.45-1-1-1h-30.33c-.55 0-1 .448-1 1 0 .553.45 1 1 1" fill="#66c4fa"/>
      <path d="m698.3019 502.9121h30.33" fill="#66c4fa"/>
      <path d="m698.3019 503.9121h30.33c.55 0 1-.448 1-1 0-.553-.45-1-1-1h-30.33c-.55 0-1 .447-1 1 0 .552.45 1 1 1" fill="#66c4fa"/>
      <path d="m698.3019 517.0671h30.33" fill="#66c4fa"/>
      <path d="m698.3019 518.0671h30.33c.55 0 1-.448 1-1s-.45-1-1-1h-30.33c-.55 0-1 .448-1 1s.45 1 1 1" fill="#66c4fa"/>
      <path d="m698.3019 531.2221h30.33" fill="#66c4fa"/>
      <path d="m698.3019 532.2221h30.33c.55 0 1-.448 1-1s-.45-1-1-1h-30.33c-.55 0-1 .448-1 1s.45 1 1 1" fill="#66c4fa"/>
      <path d="m737.6519 214.6261v-1h-98.42c-.26 0-.52.107-.7.293-.19.186-.29.444-.29.707v17.188c0 .264.1.521.29.708.18.186.44.293.7.293h98.42c.26 0 .52-.107.7-.293.19-.187.3-.444.3-.708v-17.188c0-.263-.11-.521-.3-.707-.18-.186-.44-.293-.7-.293v1h-1v16.188h-96.42v-15.188h97.42v-1h-1z" fill="#64ffbc"/>
      <g fill="#66c4fa">
        <path d="m403.3519 369.8751v1h94.72v220.897h-93.72v-221.897h-1v1-1h-1v222.897c0 .263.1.521.29.707s.44.293.71.293h95.72c.27 0 .53-.107.71-.293.19-.186.29-.444.29-.707v-222.897c0-.263-.1-.521-.29-.707-.18-.186-.44-.293-.71-.293h-95.72c-.27 0-.52.107-.71.293s-.29.444-.29.707z"/>
        <path d="m403.3519 369.8751.63.779 94.1-75.737v73.958h-94.73v1l.63.779-.63-.779v1h95.73c.26 0 .52-.107.7-.293.19-.186.29-.443.29-.707v-77.046c0-.386-.22-.735-.56-.902-.35-.167-.76-.119-1.06.123l-95.73 77.046c-.33.265-.46.713-.32 1.111.15.399.53.668.95.668z"/>
        <path d="m440.9519 355.6311.63.779 42.01-33.81v32.031h-42.64v1l.63.779-.63-.779v1h43.64c.26 0 .52-.107.7-.293.19-.187.3-.444.3-.707v-35.119c0-.386-.23-.736-.57-.902-.35-.167-.76-.119-1.06.123l-43.64 35.119c-.32.265-.45.712-.31 1.111s.52.668.94.668z"/>
        <path d="m482.5419 446.1151v-1h-23.36v-22.368h22.36v23.368h1v-1 1h1v-24.368c0-.263-.1-.521-.29-.707-.18-.186-.44-.293-.71-.293h-24.36c-.27 0-.52.107-.71.293s-.29.444-.29.707v24.368c0 .263.1.521.29.707s.44.293.71.293h24.36c.27 0 .53-.107.71-.293.19-.186.29-.444.29-.707z"/>
        <path d="m441.9619 484.0111v-1h-23.37v-22.368h22.37v23.368h1v-1 1h1v-24.368c0-.263-.11-.521-.29-.707-.19-.186-.45-.293-.71-.293h-24.37c-.26 0-.52.107-.7.293-.19.186-.3.444-.3.707v24.368c0 .263.11.521.3.707.18.186.44.293.7.293h24.37c.26 0 .52-.107.71-.293.18-.186.29-.444.29-.707z"/>
        <path d="m482.5419 521.9071v-1h-23.36v-22.368h22.36v23.368h1v-1 1h1v-24.368c0-.263-.1-.521-.29-.707-.18-.186-.44-.293-.71-.293h-24.36c-.27 0-.52.107-.71.293s-.29.444-.29.707v24.368c0 .263.1.521.29.707s.44.293.71.293h24.36c.27 0 .53-.107.71-.293.19-.186.29-.444.29-.707z"/>
        <path d="m441.9619 559.8031v-1h-23.37v-22.368h22.37v23.368h1v-1 1h1v-24.368c0-.263-.11-.521-.29-.707-.19-.186-.45-.293-.71-.293h-24.37c-.26 0-.52.107-.7.293-.19.186-.3.444-.3.707v24.368c0 .263.11.521.3.707.18.186.44.293.7.293h24.37c.26 0 .52-.107.71-.293.18-.186.29-.444.29-.707z"/>
        <path d="m482.5419 559.8031v-1h-23.36v-22.368h22.36v23.368h1v-1 1h1v-24.368c0-.263-.1-.521-.29-.707-.18-.186-.44-.293-.71-.293h-24.36c-.27 0-.52.107-.71.293s-.29.444-.29.707v24.368c0 .263.1.521.29.707s.44.293.71.293h24.36c.27 0 .53-.107.71-.293.19-.186.29-.444.29-.707z"/>
        <path d="m570.9419 344.8201v-1h-58.69v-19.755h57.69v20.755h1v-1 1h1v-21.755c0-.263-.11-.521-.29-.707-.19-.186-.45-.293-.71-.293h-59.69c-.26 0-.52.107-.7.293-.19.186-.3.444-.3.707v21.755c0 .263.11.521.3.707.18.186.44.293.7.293h59.69c.26 0 .52-.107.71-.293.18-.186.29-.444.29-.707z"/>
        <path d="m499.0719 592.7721v1h84.05c.26 0 .52-.107.71-.293.18-.186.29-.444.29-.707v-258.829c0-.264-.11-.521-.29-.708-.19-.186-.45-.292-.71-.292h-84.05c-.26 0-.52.106-.7.292-.19.187-.3.444-.3.708v258.829c0 .263.11.521.3.707.18.186.44.293.7.293v-1h1v-257.83h82.05v256.83h-83.05v1h1z"/>
        <path d="m511.2519 352.3511h59.69"/>
        <path d="m511.2519 353.3511h59.69c.55 0 1-.448 1-1 0-.553-.45-1-1-1h-59.69c-.55 0-1 .447-1 1 0 .552.45 1 1 1"/>
        <path d="m511.2519 373.5481h59.69"/>
        <path d="m511.2519 374.5481h59.69c.55 0 1-.448 1-1s-.45-1-1-1h-59.69c-.55 0-1 .448-1 1s.45 1 1 1"/>
        <path d="m511.2519 394.7451h59.69"/>
        <path d="m511.2519 395.7451h59.69c.55 0 1-.448 1-1s-.45-1-1-1h-59.69c-.55 0-1 .448-1 1s.45 1 1 1"/>
        <path d="m511.2519 415.9421h59.69"/>
        <path d="m511.2519 416.9421h59.69c.55 0 1-.447 1-1 0-.552-.45-1-1-1h-59.69c-.55 0-1 .448-1 1 0 .553.45 1 1 1"/>
        <path d="m511.2519 437.1391h59.69"/>
        <path d="m511.2519 438.1391h59.69c.55 0 1-.447 1-1 0-.552-.45-1-1-1h-59.69c-.55 0-1 .448-1 1 0 .553.45 1 1 1"/>
        <path d="m511.2519 458.3371h59.69"/>
        <path d="m511.2519 459.3371h59.69c.55 0 1-.448 1-1 0-.553-.45-1-1-1h-59.69c-.55 0-1 .447-1 1 0 .552.45 1 1 1"/>
        <path d="m511.2519 479.5341h59.69"/>
        <path d="m511.2519 480.5341h59.69c.55 0 1-.448 1-1s-.45-1-1-1h-59.69c-.55 0-1 .448-1 1s.45 1 1 1"/>
        <path d="m511.2519 500.7311h59.69"/>
        <path d="m511.2519 501.7311h59.69c.55 0 1-.447 1-1 0-.552-.45-1-1-1h-59.69c-.55 0-1 .448-1 1 0 .553.45 1 1 1"/>
        <path d="m511.2519 521.9291h59.69"/>
        <path d="m511.2519 522.9291h59.69c.55 0 1-.448 1-1 0-.553-.45-1-1-1h-59.69c-.55 0-1 .447-1 1 0 .552.45 1 1 1"/>
        <path d="m511.2519 543.1261h59.69"/>
        <path d="m511.2519 544.1261h59.69c.55 0 1-.448 1-1 0-.553-.45-1-1-1h-59.69c-.55 0-1 .447-1 1 0 .552.45 1 1 1"/>
        <path d="m511.2519 564.3231h59.69"/>
        <path d="m511.2519 565.3231h59.69c.55 0 1-.448 1-1s-.45-1-1-1h-59.69c-.55 0-1 .448-1 1s.45 1 1 1"/>
        <path d="m233.3719 353.3981v-1h-76.35v-21.761h75.35v22.761h1v-1 1h1v-23.761c0-.263-.11-.521-.29-.707-.19-.186-.45-.293-.71-.293h-77.35c-.26 0-.52.107-.71.293-.18.186-.29.444-.29.707v23.761c0 .263.11.52.29.707.19.186.45.293.71.293h77.35c.26 0 .52-.107.71-.293.18-.187.29-.444.29-.707z"/>
        <path d="m151.5619 592.7721v1h86.27c.27 0 .53-.107.71-.293.19-.186.29-.444.29-.707v-249.401c0-.263-.1-.521-.29-.707-.18-.186-.44-.293-.71-.293h-86.27c-.27 0-.53.107-.71.293-.19.186-.29.444-.29.707v249.401c0 .263.1.521.29.707.18.186.44.293.71.293v-1h1v-248.401h84.27v247.401h-85.27v1h1z"/>
        <path d="m223.3819 382.0301v-1h-22.25v-21.255h21.25v22.255h1v-1 1h1v-23.255c0-.263-.1-.52-.29-.707-.18-.186-.44-.293-.71-.293h-23.25c-.26 0-.52.107-.71.293-.18.187-.29.444-.29.707v23.255c0 .264.11.521.29.708.19.186.45.292.71.292h23.25c.27 0 .53-.106.71-.292.19-.187.29-.444.29-.708z"/>
        <path d="m189.7719 415.3961v-1h-22.26v-21.255h21.26v22.255h1v-1 1h1v-23.255c0-.263-.11-.521-.3-.707-.18-.186-.44-.293-.7-.293h-23.26c-.26 0-.52.107-.71.293-.18.186-.29.444-.29.707v23.255c0 .263.11.521.29.707.19.186.45.293.71.293h23.26c.26 0 .52-.107.7-.293.19-.186.3-.444.3-.707z"/>
        <path d="m223.3819 415.3961v-1h-22.25v-21.255h21.25v22.255h1v-1 1h1v-23.255c0-.263-.1-.521-.29-.707-.18-.186-.44-.293-.71-.293h-23.25c-.26 0-.52.107-.71.293-.18.186-.29.444-.29.707v23.255c0 .263.11.521.29.707.19.186.45.293.71.293h23.25c.27 0 .53-.107.71-.293.19-.186.29-.444.29-.707z"/>
        <path d="m189.7719 448.7621v-1h-22.26v-21.255h21.26v22.255h1v-1 1h1v-23.255c0-.263-.11-.521-.3-.707-.18-.186-.44-.293-.7-.293h-23.26c-.26 0-.52.107-.71.293-.18.186-.29.444-.29.707v23.255c0 .263.11.521.29.707.19.186.45.293.71.293h23.26c.26 0 .52-.107.7-.293.19-.186.3-.444.3-.707z"/>
        <path d="m189.7719 482.1281v-1h-22.26v-21.255h21.26v22.255h1v-1 1h1v-23.255c0-.263-.11-.521-.3-.707-.18-.186-.44-.293-.7-.293h-23.26c-.26 0-.52.107-.71.293-.18.186-.29.444-.29.707v23.255c0 .263.11.521.29.707.19.186.45.293.71.293h23.26c.26 0 .52-.107.7-.293.19-.186.3-.444.3-.707z"/>
        <path d="m223.3819 482.1281v-1h-22.25v-21.255h21.25v22.255h1v-1 1h1v-23.255c0-.263-.1-.521-.29-.707-.18-.186-.44-.293-.71-.293h-23.25c-.26 0-.52.107-.71.293-.18.186-.29.444-.29.707v23.255c0 .263.11.521.29.707.19.186.45.293.71.293h23.25c.27 0 .53-.107.71-.293.19-.186.29-.444.29-.707z"/>
        <path d="m189.7719 515.4941v-1h-22.26v-21.255h21.26v22.255h1v-1 1h1v-23.255c0-.264-.11-.521-.3-.707-.18-.187-.44-.293-.7-.293h-23.26c-.26 0-.52.106-.71.293-.18.186-.29.443-.29.707v23.255c0 .263.11.52.29.707.19.186.45.293.71.293h23.26c.26 0 .52-.107.7-.293.19-.187.3-.444.3-.707z"/>
        <path d="m223.3819 515.4941v-1h-22.25v-21.255h21.25v22.255h1v-1 1h1v-23.255c0-.264-.1-.521-.29-.707-.18-.187-.44-.293-.71-.293h-23.25c-.26 0-.52.106-.71.293-.18.186-.29.443-.29.707v23.255c0 .263.11.52.29.707.19.186.45.293.71.293h23.25c.27 0 .53-.107.71-.293.19-.187.29-.444.29-.707z"/>
        <path d="m189.7719 548.8591v-1h-22.26v-21.255h21.26v22.255h1v-1 1h1v-23.254c0-.264-.11-.521-.3-.708-.18-.186-.44-.292-.7-.292h-23.26c-.26 0-.52.106-.71.292-.18.187-.29.444-.29.708v23.254c0 .264.11.521.29.707.19.187.45.293.71.293h23.26c.26 0 .52-.106.7-.293.19-.186.3-.443.3-.707z"/>
        <path d="m223.3819 548.8591v-1h-22.25v-21.255h21.25v22.255h1v-1 1h1v-23.254c0-.264-.1-.521-.29-.708-.18-.186-.44-.292-.71-.292h-23.25c-.26 0-.52.106-.71.292-.18.187-.29.444-.29.708v23.254c0 .264.11.521.29.707.19.187.45.293.71.293h23.25c.27 0 .53-.106.71-.293.19-.186.29-.443.29-.707z"/>
        <path d="m156.3519 329.6371.65.759 37.69-32.302 35.65 30.543h-73.99v1l.65.759-.65-.759v1h76.69c.42 0 .8-.26.94-.653.15-.394.03-.833-.28-1.106l-38.35-32.861c-.38-.32-.93-.32-1.31 0l-38.35 32.861c-.31.273-.43.712-.28 1.106.14.394.52.653.94.653z"/>
        <path d="m194.7019 296.7771v-20.222z"/>
        <path d="m195.7019 296.7771v-20.222c0-.552-.45-1-1-1-.56 0-1.01.448-1.01 1v20.222c0 .552.45 1 1.01 1 .55 0 1-.448 1-1"/>
        <path d="m93.2119 519.3981 18.6-15.276h98.94l13.19 15.16c.36.417.99.461 1.41.098.41-.362.46-.994.1-1.41l-13.49-15.504c-.19-.218-.46-.344-.75-.344h-99.76c-.23 0-.46.081-.64.228l-18.87 15.503c-.43.35-.49.981-.14 1.407.35.427.98.489 1.41.138"/>
        <path d="m92.5819 592.7721h1v-73.146h130.11v72.146h-131.11v1h1-1v1h132.11c.26 0 .52-.107.71-.293.18-.186.29-.444.29-.707v-74.146c0-.264-.11-.521-.29-.707-.19-.187-.45-.293-.71-.293h-132.11c-.27 0-.53.106-.71.292-.19.187-.29.444-.29.708v74.146c0 .263.1.521.29.707.18.186.44.293.71.293z"/>
        <path d="m135.7119 518.6261v74.146"/>
        <path d="m134.7119 518.6261v74.146c0 .552.45 1 1 1 .56 0 1-.448 1-1v-74.146c0-.553-.44-1-1-1-.55 0-1 .447-1 1"/>
        <path d="m181.5519 518.6261v74.146"/>
        <path d="m180.5519 518.6261v74.146c0 .552.45 1 1 1s1-.448 1-1v-74.146c0-.553-.45-1-1-1s-1 .447-1 1"/>
        <path d="m92.5819 533.4551h132.11"/>
        <path d="m92.5819 534.4551h132.11c.55 0 1-.448 1-1 0-.553-.45-1-1-1h-132.11c-.56 0-1 .447-1 1 0 .552.44 1 1 1"/>
        <path d="m92.5819 546.2621h132.11"/>
        <path d="m92.5819 547.2621h132.11c.55 0 1-.448 1-1s-.45-1-1-1h-132.11c-.56 0-1 .448-1 1s.44 1 1 1"/>
        <path d="m92.5819 559.0691h132.11"/>
        <path d="m92.5819 560.0691h132.11c.55 0 1-.448 1-1s-.45-1-1-1h-132.11c-.56 0-1 .448-1 1s.44 1 1 1"/>
        <path d="m92.5819 571.8761h132.11"/>
        <path d="m92.5819 572.8761h132.11c.55 0 1-.448 1-1s-.45-1-1-1h-132.11c-.56 0-1 .448-1 1s.44 1 1 1"/>
        <path d="m1108.4619 592.7721h-1060.37"/>
        <path d="m1108.4619 591.7721h-1060.37c-.55 0-1 .448-1 1s.45 1 1 1h1060.37c.55 0 1-.448 1-1s-.45-1-1-1"/>
        <path d="m1076.0419 608.4921h-995.53"/>
        <path d="m1076.0419 607.4921h-995.53c-.55 0-1 .448-1 1s.45 1 1 1h995.53c.55 0 1-.448 1-1s-.45-1-1-1"/>
        <path d="m279.5919 198.4491v-1h-19.9v-26.311h18.9v27.311h1v-1 1h1v-28.311c0-.263-.11-.521-.3-.707-.18-.186-.44-.293-.7-.293h-20.9c-.26 0-.52.107-.71.293-.18.186-.29.444-.29.707v28.311c0 .263.11.521.29.707.19.186.45.293.71.293h20.9c.26 0 .52-.107.7-.293.19-.186.3-.444.3-.707z"/>
        <path d="m288.0119 211.5931v-1h-36.75v-22.266h35.75v23.266h1v-1 1h1v-24.266c0-.263-.11-.521-.29-.707-.19-.186-.45-.293-.71-.293h-37.75c-.26 0-.52.107-.7.293-.19.186-.3.444-.3.707v24.266c0 .263.11.521.3.707.18.186.44.293.7.293h37.75c.26 0 .52-.107.71-.293.18-.186.29-.444.29-.707z"/>
        <path d="m293.7419 270.5731v-1h-48.21v-63.384h47.21v64.384h1v-1 1h1v-65.384c0-.263-.11-.521-.29-.707-.19-.186-.45-.293-.71-.293h-49.21c-.26 0-.52.107-.7.293-.19.186-.3.444-.3.707v65.384c0 .263.11.521.3.707.18.186.44.293.7.293h49.21c.26 0 .52-.107.71-.293.18-.186.29-.444.29-.707z"/>
        <path d="m298.8019 592.7721v-1h-58.32v-328.288h57.32v329.288h1v-1 1h1v-330.288c0-.263-.11-.521-.3-.707-.18-.186-.44-.293-.7-.293h-59.32c-.26 0-.52.107-.71.293-.18.186-.29.444-.29.707v330.288c0 .263.11.521.29.707.19.186.45.293.71.293h59.32c.26 0 .52-.107.7-.293.19-.186.3-.444.3-.707z"/>
        <path d="m250.2619 280.0101h37.75"/>
        <path d="m250.2619 281.0101h37.75c.55 0 1-.448 1-1 0-.553-.45-1-1-1h-37.75c-.55 0-1 .447-1 1 0 .552.45 1 1 1"/>
        <path d="m254.3119 221.1981h29.66"/>
        <path d="m254.3119 222.1981h29.66c.55 0 1-.448 1-1s-.45-1-1-1h-29.66c-.55 0-1 .448-1 1s.45 1 1 1"/>
        <path d="m254.3119 240.7461h29.66"/>
        <path d="m254.3119 241.7461h29.66c.55 0 1-.448 1-1s-.45-1-1-1h-29.66c-.55 0-1 .448-1 1s.45 1 1 1"/>
        <path d="m250.2619 297.1981h37.75"/>
        <path d="m250.2619 298.1981h37.75c.55 0 1-.448 1-1s-.45-1-1-1h-37.75c-.55 0-1 .448-1 1s.45 1 1 1"/>
        <path d="m250.2619 314.3871h37.75"/>
        <path d="m250.2619 315.3871h37.75c.55 0 1-.448 1-1 0-.553-.45-1-1-1h-37.75c-.55 0-1 .447-1 1 0 .552.45 1 1 1"/>
        <path d="m250.2619 331.5751h37.75"/>
        <path d="m250.2619 332.5751h37.75c.55 0 1-.448 1-1s-.45-1-1-1h-37.75c-.55 0-1 .448-1 1s.45 1 1 1"/>
        <path d="m250.2619 348.7631h37.75"/>
        <path d="m250.2619 349.7631h37.75c.55 0 1-.447 1-1 0-.552-.45-1-1-1h-37.75c-.55 0-1 .448-1 1 0 .553.45 1 1 1"/>
        <path d="m250.2619 365.9521h37.75"/>
        <path d="m250.2619 366.9521h37.75c.55 0 1-.448 1-1 0-.553-.45-1-1-1h-37.75c-.55 0-1 .447-1 1 0 .552.45 1 1 1"/>
        <path d="m250.2619 383.1401h37.75"/>
        <path d="m250.2619 384.1401h37.75c.55 0 1-.448 1-1s-.45-1-1-1h-37.75c-.55 0-1 .448-1 1s.45 1 1 1"/>
        <path d="m250.2619 400.3291h37.75"/>
        <path d="m250.2619 401.3291h37.75c.55 0 1-.448 1-1 0-.553-.45-1-1-1h-37.75c-.55 0-1 .447-1 1 0 .552.45 1 1 1"/>
        <path d="m250.2619 417.5171h37.75"/>
        <path d="m250.2619 418.5171h37.75c.55 0 1-.448 1-1s-.45-1-1-1h-37.75c-.55 0-1 .448-1 1s.45 1 1 1"/>
        <path d="m250.2619 434.7061h37.75"/>
        <path d="m250.2619 435.7061h37.75c.55 0 1-.448 1-1 0-.553-.45-1-1-1h-37.75c-.55 0-1 .447-1 1 0 .552.45 1 1 1"/>
        <path d="m250.2619 451.8941h37.75"/>
        <path d="m250.2619 452.8941h37.75c.55 0 1-.448 1-1s-.45-1-1-1h-37.75c-.55 0-1 .448-1 1s.45 1 1 1"/>
        <path d="m250.2619 469.0821h37.75"/>
        <path d="m250.2619 470.0821h37.75c.55 0 1-.447 1-1 0-.552-.45-1-1-1h-37.75c-.55 0-1 .448-1 1 0 .553.45 1 1 1"/>
        <path d="m250.2619 486.2711h37.75"/>
        <path d="m250.2619 487.2711h37.75c.55 0 1-.448 1-1s-.45-1-1-1h-37.75c-.55 0-1 .448-1 1s.45 1 1 1"/>
        <path d="m250.2619 503.4591h37.75"/>
        <path d="m250.2619 504.4591h37.75c.55 0 1-.447 1-1 0-.552-.45-1-1-1h-37.75c-.55 0-1 .448-1 1 0 .553.45 1 1 1"/>
        <path d="m250.2619 520.6481h37.75"/>
        <path d="m250.2619 521.6481h37.75c.55 0 1-.448 1-1s-.45-1-1-1h-37.75c-.55 0-1 .448-1 1s.45 1 1 1"/>
        <path d="m250.2619 537.8361h37.75"/>
        <path d="m250.2619 538.8361h37.75c.55 0 1-.447 1-1 0-.552-.45-1-1-1h-37.75c-.55 0-1 .448-1 1 0 .553.45 1 1 1"/>
        <path d="m250.2619 555.0251h37.75"/>
        <path d="m250.2619 556.0251h37.75c.55 0 1-.448 1-1 0-.553-.45-1-1-1h-37.75c-.55 0-1 .447-1 1 0 .552.45 1 1 1"/>
        <path d="m250.2619 572.2131h37.75"/>
        <path d="m250.2619 573.2131h37.75c.55 0 1-.448 1-1s-.45-1-1-1h-37.75c-.55 0-1 .448-1 1s.45 1 1 1"/>
        <path d="m269.1419 170.1381v-22.58z"/>
        <path d="m270.1419 170.1381v-22.58c0-.553-.45-1-1-1-.56 0-1 .447-1 1v22.58c0 .552.44 1 1 1 .55 0 1-.448 1-1"/>
        <path d="m370.5819 198.4491v-1h-19.89v-26.311h18.89v27.311h1v-1 1h1v-28.311c0-.263-.1-.521-.29-.707s-.44-.293-.71-.293h-20.89c-.27 0-.52.107-.71.293s-.29.444-.29.707v28.311c0 .263.1.521.29.707s.44.293.71.293h20.89c.27 0 .52-.107.71-.293s.29-.444.29-.707z"/>
        <path d="m379.0119 211.5931v-1h-36.75v-22.266h35.75v23.266h1v-1 1h1v-24.266c0-.263-.11-.521-.29-.707-.19-.186-.45-.293-.71-.293h-37.75c-.26 0-.52.107-.71.293-.18.186-.29.444-.29.707v24.266c0 .263.11.521.29.707.19.186.45.293.71.293h37.75c.26 0 .52-.107.71-.293.18-.186.29-.444.29-.707z"/>
        <path d="m384.7419 270.5731v-1h-48.21v-63.384h47.21v64.384h1v-1 1h1v-65.384c0-.263-.11-.521-.29-.707-.19-.186-.45-.293-.71-.293h-49.21c-.26 0-.52.107-.71.293-.18.186-.29.444-.29.707v65.384c0 .263.11.521.29.707.19.186.45.293.71.293h49.21c.26 0 .52-.107.71-.293.18-.186.29-.444.29-.707z"/>
        <path d="m389.7919 592.7721v-1h-58.31v-328.288h57.31v329.288h1v-1 1h1v-330.288c0-.263-.1-.521-.29-.707s-.44-.293-.71-.293h-59.31c-.27 0-.52.107-.71.293s-.29.444-.29.707v330.288c0 .263.1.521.29.707s.44.293.71.293h59.31c.27 0 .52-.107.71-.293s.29-.444.29-.707z"/>
        <path d="m341.2619 280.0101h37.75"/>
        <path d="m341.2619 281.0101h37.75c.55 0 1-.448 1-1 0-.553-.45-1-1-1h-37.75c-.55 0-1 .447-1 1 0 .552.45 1 1 1"/>
        <path d="m345.3119 221.1981h29.65"/>
        <path d="m345.3119 222.1981h29.65c.56 0 1-.448 1-1s-.44-1-1-1h-29.65c-.56 0-1 .448-1 1s.44 1 1 1"/>
        <path d="m345.3119 240.7461h29.65"/>
        <path d="m345.3119 241.7461h29.65c.56 0 1-.448 1-1s-.44-1-1-1h-29.65c-.56 0-1 .448-1 1s.44 1 1 1"/>
        <path d="m341.2619 297.1981h37.75"/>
        <path d="m341.2619 298.1981h37.75c.55 0 1-.448 1-1s-.45-1-1-1h-37.75c-.55 0-1 .448-1 1s.45 1 1 1"/>
        <path d="m341.2619 314.3871h37.75"/>
        <path d="m341.2619 315.3871h37.75c.55 0 1-.448 1-1 0-.553-.45-1-1-1h-37.75c-.55 0-1 .447-1 1 0 .552.45 1 1 1"/>
        <path d="m341.2619 331.5751h37.75"/>
        <path d="m341.2619 332.5751h37.75c.55 0 1-.448 1-1s-.45-1-1-1h-37.75c-.55 0-1 .448-1 1s.45 1 1 1"/>
        <path d="m341.2619 348.7631h37.75"/>
        <path d="m341.2619 349.7631h37.75c.55 0 1-.447 1-1 0-.552-.45-1-1-1h-37.75c-.55 0-1 .448-1 1 0 .553.45 1 1 1"/>
        <path d="m341.2619 365.9521h37.75"/>
        <path d="m341.2619 366.9521h37.75c.55 0 1-.448 1-1 0-.553-.45-1-1-1h-37.75c-.55 0-1 .447-1 1 0 .552.45 1 1 1"/>
        <path d="m341.2619 383.1401h37.75"/>
        <path d="m341.2619 384.1401h37.75c.55 0 1-.448 1-1s-.45-1-1-1h-37.75c-.55 0-1 .448-1 1s.45 1 1 1"/>
        <path d="m341.2619 400.3291h37.75"/>
        <path d="m341.2619 401.3291h37.75c.55 0 1-.448 1-1 0-.553-.45-1-1-1h-37.75c-.55 0-1 .447-1 1 0 .552.45 1 1 1"/>
        <path d="m341.2619 417.5171h37.75"/>
        <path d="m341.2619 418.5171h37.75c.55 0 1-.448 1-1s-.45-1-1-1h-37.75c-.55 0-1 .448-1 1s.45 1 1 1"/>
        <path d="m341.2619 434.7061h37.75"/>
        <path d="m341.2619 435.7061h37.75c.55 0 1-.448 1-1 0-.553-.45-1-1-1h-37.75c-.55 0-1 .447-1 1 0 .552.45 1 1 1"/>
        <path d="m341.2619 451.8941h37.75"/>
        <path d="m341.2619 452.8941h37.75c.55 0 1-.448 1-1s-.45-1-1-1h-37.75c-.55 0-1 .448-1 1s.45 1 1 1"/>
        <path d="m341.2619 469.0821h37.75"/>
        <path d="m341.2619 470.0821h37.75c.55 0 1-.447 1-1 0-.552-.45-1-1-1h-37.75c-.55 0-1 .448-1 1 0 .553.45 1 1 1"/>
        <path d="m341.2619 486.2711h37.75"/>
        <path d="m341.2619 487.2711h37.75c.55 0 1-.448 1-1s-.45-1-1-1h-37.75c-.55 0-1 .448-1 1s.45 1 1 1"/>
        <path d="m341.2619 503.4591h37.75"/>
        <path d="m341.2619 504.4591h37.75c.55 0 1-.447 1-1 0-.552-.45-1-1-1h-37.75c-.55 0-1 .448-1 1 0 .553.45 1 1 1"/>
        <path d="m341.2619 520.6481h37.75"/>
        <path d="m341.2619 521.6481h37.75c.55 0 1-.448 1-1s-.45-1-1-1h-37.75c-.55 0-1 .448-1 1s.45 1 1 1"/>
        <path d="m341.2619 537.8361h37.75"/>
        <path d="m341.2619 538.8361h37.75c.55 0 1-.447 1-1 0-.552-.45-1-1-1h-37.75c-.55 0-1 .448-1 1 0 .553.45 1 1 1"/>
        <path d="m341.2619 555.0251h37.75"/>
        <path d="m341.2619 556.0251h37.75c.55 0 1-.448 1-1 0-.553-.45-1-1-1h-37.75c-.55 0-1 .447-1 1 0 .552.45 1 1 1"/>
        <path d="m341.2619 572.2131h37.75"/>
        <path d="m341.2619 573.2131h37.75c.55 0 1-.448 1-1s-.45-1-1-1h-37.75c-.55 0-1 .448-1 1s.45 1 1 1"/>
        <path d="m360.1319 170.1381v-22.58z"/>
        <path d="m361.1319 170.1381v-22.58c0-.553-.44-1-1-1-.55 0-.99.447-.99 1v22.58c0 .552.44 1 .99 1 .56 0 1-.448 1-1"/>
        <path d="m330.4819 297.1981v-1h-30.68v-21.255h29.68v22.255h1v-1 1h1v-23.255c0-.263-.11-.521-.3-.707-.18-.186-.44-.293-.7-.293h-31.68c-.27 0-.53.107-.71.293-.19.186-.29.444-.29.707v23.255c0 .263.1.521.29.707.18.186.44.293.71.293h31.68c.26 0 .52-.107.7-.293.19-.186.3-.444.3-.707z"/>
        <path d="m298.8019 288.9411h31.68"/>
        <path d="m298.8019 289.9411h31.68c.55 0 1-.448 1-1s-.45-1-1-1h-31.68c-.56 0-1 .448-1 1s.44 1 1 1"/>
        <path d="m330.4819 383.1401v-1h-30.68v-21.255h29.68v22.255h1v-1 1h1v-23.255c0-.263-.11-.521-.3-.707-.18-.186-.44-.293-.7-.293h-31.68c-.27 0-.53.107-.71.293-.19.186-.29.444-.29.707v23.255c0 .263.1.521.29.707.18.186.44.293.71.293h31.68c.26 0 .52-.107.7-.293.19-.186.3-.444.3-.707z"/>
        <path d="m298.8019 374.8831h31.68"/>
        <path d="m298.8019 375.8831h31.68c.55 0 1-.448 1-1s-.45-1-1-1h-31.68c-.56 0-1 .448-1 1s.44 1 1 1"/>
        <path d="m419.6319 547.9471v-1h-180.3v-23.614h179.3v24.614h1v-1 1h1v-25.614c0-.263-.11-.521-.3-.707-.18-.186-.44-.293-.7-.293h-181.3c-.26 0-.52.107-.7.293-.19.186-.3.444-.3.707v25.614c0 .263.11.521.3.707.18.186.44.293.7.293h181.3c.26 0 .52-.107.7-.293.19-.186.3-.444.3-.707z"/>
        <path d="m224.9919 592.7721v1h207.98c.27 0 .52-.107.71-.293s.29-.444.29-.707v-57.632c0-.263-.1-.521-.29-.707s-.44-.293-.71-.293h-207.98c-.27 0-.52.107-.71.293s-.29.444-.29.707v57.632c0 .263.1.521.29.707s.44.293.71.293v-1h1v-56.632h205.98v55.632h-206.98v1h1z"/>
        <path d="m238.3319 547.6101h33.24"/>
        <path d="m238.3319 548.6101h33.24c.55 0 1-.448 1-1s-.45-1-1-1h-33.24c-.55 0-1 .448-1 1s.45 1 1 1"/>
        <path d="m238.3319 562.1861h33.24"/>
        <path d="m238.3319 563.1861h33.24c.55 0 1-.447 1-1 0-.552-.45-1-1-1h-33.24c-.55 0-1 .448-1 1 0 .553.45 1 1 1"/>
        <path d="m238.3319 576.7631h33.24"/>
        <path d="m238.3319 577.7631h33.24c.55 0 1-.448 1-1s-.45-1-1-1h-33.24c-.55 0-1 .448-1 1s.45 1 1 1"/>
        <path d="m287.6919 547.6101h33.23"/>
        <path d="m287.6919 548.6101h33.23c.55 0 1-.448 1-1s-.45-1-1-1h-33.23c-.56 0-1 .448-1 1s.44 1 1 1"/>
        <path d="m287.6919 562.1861h33.23"/>
        <path d="m287.6919 563.1861h33.23c.55 0 1-.447 1-1 0-.552-.45-1-1-1h-33.23c-.56 0-1 .448-1 1 0 .553.44 1 1 1"/>
        <path d="m287.6919 576.7631h33.23"/>
        <path d="m287.6919 577.7631h33.23c.55 0 1-.448 1-1s-.45-1-1-1h-33.23c-.56 0-1 .448-1 1s.44 1 1 1"/>
        <path d="m337.0419 547.6101h33.23"/>
        <path d="m337.0419 548.6101h33.23c.56 0 1-.448 1-1s-.44-1-1-1h-33.23c-.55 0-1 .448-1 1s.45 1 1 1"/>
        <path d="m337.0419 562.1861h33.23"/>
        <path d="m337.0419 563.1861h33.23c.56 0 1-.447 1-1 0-.552-.44-1-1-1h-33.23c-.55 0-1 .448-1 1 0 .553.45 1 1 1"/>
        <path d="m337.0419 576.7631h33.23"/>
        <path d="m337.0419 577.7631h33.23c.56 0 1-.448 1-1s-.44-1-1-1h-33.23c-.55 0-1 .448-1 1s.45 1 1 1"/>
        <path d="m386.3919 547.6101h33.24"/>
        <path d="m386.3919 548.6101h33.24c.55 0 1-.448 1-1s-.45-1-1-1h-33.24c-.55 0-1 .448-1 1s.45 1 1 1"/>
        <path d="m386.3919 562.1861h33.24"/>
        <path d="m386.3919 563.1861h33.24c.55 0 1-.447 1-1 0-.552-.45-1-1-1h-33.24c-.55 0-1 .448-1 1 0 .553.45 1 1 1"/>
        <path d="m386.3919 576.7631h33.24"/>
        <path d="m386.3919 577.7631h33.24c.55 0 1-.448 1-1s-.45-1-1-1h-33.24c-.55 0-1 .448-1 1s.45 1 1 1"/>
        <path d="m444.3519 558.6481h25.78"/>
        <path d="m444.3519 559.6481h25.78c.55 0 1-.448 1-1 0-.553-.45-1-1-1h-25.78c-.55 0-1 .447-1 1 0 .552.45 1 1 1"/>
        <path d="m444.3519 576.6371h25.78"/>
        <path d="m444.3519 577.6371h25.78c.55 0 1-.448 1-1 0-.553-.45-1-1-1h-25.78c-.55 0-1 .447-1 1 0 .552.45 1 1 1"/>
        <path d="m491.3619 558.6481h25.79"/>
        <path d="m491.3619 559.6481h25.79c.55 0 1-.448 1-1 0-.553-.45-1-1-1h-25.79c-.55 0-1 .447-1 1 0 .552.45 1 1 1"/>
        <path d="m491.3619 576.6371h25.79"/>
        <path d="m491.3619 577.6371h25.79c.55 0 1-.448 1-1 0-.553-.45-1-1-1h-25.79c-.55 0-1 .447-1 1 0 .552.45 1 1 1"/>
        <path d="m546.7219 576.6371h25.78"/>
        <path d="m546.7219 577.6371h25.78c.56 0 1-.448 1-1 0-.553-.44-1-1-1h-25.78c-.55 0-1 .447-1 1 0 .552.45 1 1 1"/>
        <path d="m655.4119 519.7211h23.76"/>
        <path d="m655.4119 520.7211h23.76c.56 0 1-.448 1-1s-.44-1-1-1h-23.76c-.55 0-1 .448-1 1s.45 1 1 1"/>
        <path d="m655.4119 537.1621h23.76"/>
        <path d="m655.4119 538.1621h23.76c.56 0 1-.448 1-1s-.44-1-1-1h-23.76c-.55 0-1 .448-1 1s.45 1 1 1"/>
        <path d="m655.4119 554.6031h23.76"/>
        <path d="m655.4119 555.6031h23.76c.56 0 1-.447 1-1 0-.552-.44-1-1-1h-23.76c-.55 0-1 .448-1 1 0 .553.45 1 1 1"/>
        <path d="m655.4119 572.0451h23.76"/>
        <path d="m655.4119 573.0451h23.76c.56 0 1-.448 1-1 0-.553-.44-1-1-1h-23.76c-.55 0-1 .447-1 1 0 .552.45 1 1 1"/>
        <path d="m713.4219 500.0051v16.43"/>
        <path d="m712.4219 500.0051v16.43c0 .552.45 1 1 1 .56 0 1-.448 1-1v-16.43c0-.553-.44-1-1-1-.55 0-1 .447-1 1"/>
        <path d="m733.3919 500.0051v16.43"/>
        <path d="m732.3919 500.0051v16.43c0 .552.45 1 1 1s1-.448 1-1v-16.43c0-.553-.45-1-1-1s-1 .447-1 1"/>
        <path d="m713.4219 531.2221v16.43"/>
        <path d="m712.4219 531.2221v16.43c0 .552.45 1 1 1 .56 0 1-.448 1-1v-16.43c0-.552-.44-1-1-1-.55 0-1 .448-1 1"/>
        <path d="m733.3919 531.2221v16.43"/>
        <path d="m732.3919 531.2221v16.43c0 .552.45 1 1 1s1-.448 1-1v-16.43c0-.552-.45-1-1-1s-1 .448-1 1"/>
        <path d="m713.4219 562.4391v16.43"/>
        <path d="m712.4219 562.4391v16.43c0 .553.45 1 1 1 .56 0 1-.447 1-1v-16.43c0-.552-.44-1-1-1-.55 0-1 .448-1 1"/>
        <path d="m733.3919 562.4391v16.43"/>
        <path d="m732.3919 562.4391v16.43c0 .553.45 1 1 1s1-.447 1-1v-16.43c0-.552-.45-1-1-1s-1 .448-1 1"/>
        <path d="m601.1919 500.0051v16.43"/>
        <path d="m600.1919 500.0051v16.43c0 .552.45 1 1 1 .56 0 1-.448 1-1v-16.43c0-.553-.44-1-1-1-.55 0-1 .447-1 1"/>
        <path d="m621.1619 500.0051v16.43"/>
        <path d="m620.1619 500.0051v16.43c0 .552.45 1 1 1s1-.448 1-1v-16.43c0-.553-.45-1-1-1s-1 .447-1 1"/>
        <path d="m601.1919 531.2221v16.43"/>
        <path d="m600.1919 531.2221v16.43c0 .552.45 1 1 1 .56 0 1-.448 1-1v-16.43c0-.552-.44-1-1-1-.55 0-1 .448-1 1"/>
        <path d="m621.1619 531.2221v16.43"/>
        <path d="m620.1619 531.2221v16.43c0 .552.45 1 1 1s1-.448 1-1v-16.43c0-.552-.45-1-1-1s-1 .448-1 1"/>
        <path d="m601.1919 562.4391v16.43"/>
        <path d="m600.1919 562.4391v16.43c0 .553.45 1 1 1 .56 0 1-.447 1-1v-16.43c0-.552-.44-1-1-1-.55 0-1 .448-1 1"/>
        <path d="m621.1619 562.4391v16.43"/>
        <path d="m620.1619 562.4391v16.43c0 .553.45 1 1 1s1-.447 1-1v-16.43c0-.552-.45-1-1-1s-1 .448-1 1"/>
        <path d="m751.4719 486.1021h1v-25.445c0-.341-.18-.656-.46-.841-.29-.184-.65-.211-.96-.07l-56.11 25.446c-.43.194-.67.661-.57 1.122.1.46.51.788.98.788h56.12c.26 0 .52-.106.7-.293.19-.186.3-.443.3-.707h-1v-1h-51.49l50.49-22.894v23.894h1v-1z"/>
        <path d="m639.2419 486.1021h1v-25.445c0-.341-.18-.656-.46-.841-.29-.184-.65-.211-.96-.07l-56.11 25.446c-.43.194-.67.661-.57 1.122.1.46.51.788.98.788h56.12c.26 0 .52-.106.7-.293.19-.186.3-.443.3-.707h-1v-1h-51.49l50.49-22.894v23.894h1v-1z"/>
      </g>
      <path d="m827.8019 263.4111v-1h-54.94v-14.683h53.94v15.683h1v-1 1h1v-16.683c0-.263-.1-.521-.29-.707s-.44-.293-.71-.293h-55.94c-.27 0-.53.107-.71.293-.19.186-.29.444-.29.707v16.683c0 .263.1.521.29.707.18.186.44.293.71.293h55.94c.27 0 .52-.107.71-.293s.29-.444.29-.707z" fill="#84e8bd"/>
      <path d="m835.1319 279.5881v-1h-69.6v-17.21h68.6v18.21h1v-1 1h1v-19.21c0-.264-.1-.521-.29-.707-.19-.187-.44-.293-.71-.293h-70.6c-.27 0-.53.106-.71.293-.19.186-.29.443-.29.707v19.21c0 .264.1.521.29.707.18.187.44.293.71.293h70.6c.27 0 .52-.106.71-.293.19-.186.29-.443.29-.707z" fill="#ff9469"/>
      <g fill="#66c4fa">
        <path d="m764.5319 314.7231h40.52"/>
        <path d="m764.5319 315.7231h40.52c.56 0 1-.447 1-1 0-.552-.44-1-1-1h-40.52c-.56 0-1 .448-1 1 0 .553.44 1 1 1"/>
        <path d="m816.6819 314.7231h21.23"/>
        <path d="m816.6819 315.7231h21.23c.56 0 1-.447 1-1 0-.552-.44-1-1-1h-21.23c-.55 0-1 .448-1 1 0 .553.45 1 1 1"/>
        <path d="m764.5319 330.6481h40.52"/>
        <path d="m764.5319 331.6481h40.52c.56 0 1-.448 1-1s-.44-1-1-1h-40.52c-.56 0-1 .448-1 1s.44 1 1 1"/>
        <path d="m816.6819 330.6481h21.23"/>
        <path d="m816.6819 331.6481h21.23c.56 0 1-.448 1-1s-.44-1-1-1h-21.23c-.55 0-1 .448-1 1s.45 1 1 1"/>
        <path d="m764.5319 346.5731h40.52"/>
        <path d="m764.5319 347.5731h40.52c.56 0 1-.448 1-1 0-.553-.44-1-1-1h-40.52c-.56 0-1 .447-1 1 0 .552.44 1 1 1"/>
        <path d="m816.6819 346.5731h21.23"/>
        <path d="m816.6819 347.5731h21.23c.56 0 1-.448 1-1 0-.553-.44-1-1-1h-21.23c-.55 0-1 .447-1 1 0 .552.45 1 1 1"/>
        <path d="m764.5319 362.4971h40.52"/>
        <path d="m764.5319 363.4971h40.52c.56 0 1-.447 1-1 0-.552-.44-1-1-1h-40.52c-.56 0-1 .448-1 1 0 .553.44 1 1 1"/>
        <path d="m816.6819 362.4971h21.23"/>
        <path d="m816.6819 363.4971h21.23c.56 0 1-.447 1-1 0-.552-.44-1-1-1h-21.23c-.55 0-1 .448-1 1 0 .553.45 1 1 1"/>
        <path d="m764.5319 378.4221h40.52"/>
        <path d="m764.5319 379.4221h40.52c.56 0 1-.448 1-1s-.44-1-1-1h-40.52c-.56 0-1 .448-1 1s.44 1 1 1"/>
        <path d="m816.6819 378.4221h21.23"/>
        <path d="m816.6819 379.4221h21.23c.56 0 1-.448 1-1s-.44-1-1-1h-21.23c-.55 0-1 .448-1 1s.45 1 1 1"/>
        <path d="m837.9119 467.9031h-40.52"/>
        <path d="m837.9119 466.9031h-40.52c-.56 0-1 .448-1 1s.44 1 1 1h40.52c.56 0 1-.448 1-1s-.44-1-1-1"/>
        <path d="m785.7619 467.9031h-21.23"/>
        <path d="m785.7619 466.9031h-21.23c-.56 0-1 .448-1 1s.44 1 1 1h21.23c.55 0 1-.448 1-1s-.45-1-1-1"/>
        <path d="m837.9119 451.9781h-40.52"/>
        <path d="m837.9119 450.9781h-40.52c-.56 0-1 .448-1 1 0 .553.44 1 1 1h40.52c.56 0 1-.447 1-1 0-.552-.44-1-1-1"/>
        <path d="m785.7619 451.9781h-21.23"/>
        <path d="m785.7619 450.9781h-21.23c-.56 0-1 .448-1 1 0 .553.44 1 1 1h21.23c.55 0 1-.447 1-1 0-.552-.45-1-1-1"/>
        <path d="m837.9119 436.0541h-40.52"/>
        <path d="m837.9119 435.0541h-40.52c-.56 0-1 .447-1 1 0 .552.44 1 1 1h40.52c.56 0 1-.448 1-1 0-.553-.44-1-1-1"/>
        <path d="m785.7619 436.0541h-21.23"/>
        <path d="m785.7619 435.0541h-21.23c-.56 0-1 .447-1 1 0 .552.44 1 1 1h21.23c.55 0 1-.448 1-1 0-.553-.45-1-1-1"/>
        <path d="m837.9119 420.1291h-40.52"/>
        <path d="m837.9119 419.1291h-40.52c-.56 0-1 .448-1 1s.44 1 1 1h40.52c.56 0 1-.448 1-1s-.44-1-1-1"/>
        <path d="m785.7619 420.1291h-21.23"/>
        <path d="m785.7619 419.1291h-21.23c-.56 0-1 .448-1 1s.44 1 1 1h21.23c.55 0 1-.448 1-1s-.45-1-1-1"/>
        <path d="m837.9119 404.2051h-40.52"/>
        <path d="m837.9119 403.2051h-40.52c-.56 0-1 .447-1 1 0 .552.44 1 1 1h40.52c.56 0 1-.448 1-1 0-.553-.44-1-1-1"/>
        <path d="m785.7619 404.2051h-21.23"/>
        <path d="m785.7619 403.2051h-21.23c-.56 0-1 .447-1 1 0 .552.44 1 1 1h21.23c.55 0 1-.448 1-1 0-.553-.45-1-1-1"/>
        <path d="m848.1919 486.6081h-96.72"/>
        <path d="m848.1919 485.6081h-96.72c-.56 0-1 .448-1 1s.44 1 1 1h96.72c.55 0 1-.448 1-1s-.45-1-1-1"/>
        <path d="m807.8319 530.0851v27.889"/>
        <path d="m806.8319 530.0851v27.889c0 .552.45 1 1 1s1-.448 1-1v-27.889c0-.553-.45-1-1-1s-1 .447-1 1"/>
        <path d="m763.0119 531.4331h34.38"/>
        <path d="m763.0119 532.4331h34.38c.55 0 1-.448 1-1 0-.553-.45-1-1-1h-34.38c-.56 0-1 .447-1 1 0 .552.44 1 1 1"/>
        <path d="m763.0119 544.0291h34.38"/>
        <path d="m763.0119 545.0291h34.38c.55 0 1-.448 1-1s-.45-1-1-1h-34.38c-.56 0-1 .448-1 1s.44 1 1 1"/>
        <path d="m763.0119 556.6261h34.38"/>
        <path d="m763.0119 557.6261h34.38c.55 0 1-.448 1-1 0-.553-.45-1-1-1h-34.38c-.56 0-1 .447-1 1 0 .552.44 1 1 1"/>
        <path d="m880.0219 554.3511v27.889"/>
        <path d="m879.0219 554.3511v27.889c0 .552.45 1 1 1s1-.448 1-1v-27.889c0-.553-.45-1-1-1s-1 .447-1 1"/>
        <path d="m835.2019 555.6991h34.38"/>
        <path d="m835.2019 556.6991h34.38c.55 0 1-.448 1-1 0-.553-.45-1-1-1h-34.38c-.56 0-1 .447-1 1 0 .552.44 1 1 1"/>
        <path d="m835.2019 568.2951h34.38"/>
        <path d="m835.2019 569.2951h34.38c.55 0 1-.448 1-1s-.45-1-1-1h-34.38c-.56 0-1 .448-1 1s.44 1 1 1"/>
        <path d="m835.2019 580.8921h34.38"/>
        <path d="m835.2019 581.8921h34.38c.55 0 1-.448 1-1 0-.553-.45-1-1-1h-34.38c-.56 0-1 .447-1 1 0 .552.44 1 1 1"/>
        <path d="m907.0619 531.4331h34.38"/>
        <path d="m907.0619 532.4331h34.38c.55 0 1-.448 1-1 0-.553-.45-1-1-1h-34.38c-.55 0-1 .447-1 1 0 .552.45 1 1 1"/>
        <path d="m907.0619 544.0291h34.38"/>
        <path d="m907.0619 545.0291h34.38c.55 0 1-.448 1-1s-.45-1-1-1h-34.38c-.55 0-1 .448-1 1s.45 1 1 1"/>
        <path d="m907.0619 556.6261h34.38"/>
        <path d="m907.0619 557.6261h34.38c.55 0 1-.448 1-1 0-.553-.45-1-1-1h-34.38c-.55 0-1 .447-1 1 0 .552.45 1 1 1"/>
        <path d="m763.0019 562.7921h-1c0 4.224-1.24 8.031-3.19 10.73-.98 1.35-2.12 2.423-3.36 3.151-1.25.729-2.58 1.119-3.98 1.12-1.41-.001-2.74-.391-3.99-1.12-1.86-1.091-3.51-2.963-4.68-5.373-1.17-2.407-1.87-5.341-1.87-8.508 0-4.225 1.25-8.032 3.19-10.731.98-1.35 2.12-2.423 3.36-3.151 1.25-.729 2.58-1.119 3.99-1.120001 1.4.001001 2.73.391001 3.98 1.120001 1.86 1.091 3.51 2.963 4.68 5.373 1.17 2.407 1.87 5.341 1.87 8.509h2c-.01-4.614-1.34-8.808-3.57-11.9-1.11-1.545-2.45-2.816-3.97-3.707s-3.21-1.396-4.99-1.395001c-1.79-.000999-3.48.504001-5 1.395001-2.27 1.338-4.15 3.524-5.47 6.222-1.31 2.701-2.06 5.924-2.07 9.385.01 4.613 1.35 8.807 3.57 11.899 1.11 1.545 2.45 2.816 3.97 3.707s3.21 1.396 5 1.395001c1.78.000999 3.47-.504001 4.99-1.395001 2.28-1.338 4.15-3.524 5.47-6.222 1.31-2.701 2.07-5.924 2.07-9.384z"/>
        <path d="m751.4719 578.7931v13.979"/>
        <path d="m750.4719 578.7931v13.979c0 .552.44 1 1 1 .55 0 1-.448 1-1v-13.979c0-.552-.45-1-1-1-.56 0-1 .448-1 1"/>
        <path d="m547.6419 562.7921h-1c0 4.224-1.25 8.031-3.19 10.73-.98 1.35-2.12 2.423-3.36 3.151-1.25.729-2.58 1.119-3.99 1.12-1.4-.001-2.73-.391-3.98-1.12-1.86-1.091-3.51-2.963-4.68-5.373-1.17-2.407-1.87-5.341-1.87-8.508 0-4.225 1.24-8.032 3.19-10.731.98-1.35 2.12-2.423 3.36-3.151 1.25-.729 2.58-1.119 3.98-1.120001 1.41.001001 2.74.391001 3.99 1.120001 1.86 1.091 3.51 2.963 4.68 5.373 1.17 2.407 1.87 5.341 1.87 8.509h2c-.01-4.614-1.35-8.808-3.57-11.9-1.11-1.545-2.45-2.816-3.97-3.707s-3.21-1.396-5-1.395001c-1.78-.000999-3.47.504001-4.99 1.395001-2.28 1.338-4.15 3.524-5.47 6.222-1.31 2.701-2.07 5.924-2.07 9.385.01 4.613 1.34 8.807 3.57 11.899 1.11 1.545 2.45 2.816 3.97 3.707s3.21 1.396 4.99 1.395001c1.79.000999 3.48-.504001 5-1.395001 2.27-1.338 4.15-3.524 5.47-6.222 1.31-2.701 2.06-5.924 2.07-9.384z"/>
        <path d="m536.1019 578.7931v13.979"/>
        <path d="m535.1019 578.7931v13.979c0 .552.45 1 1 1 .56 0 1-.448 1-1v-13.979c0-.552-.44-1-1-1-.55 0-1 .448-1 1"/>
        <path d="m234.9219 562.7921h-1c0 4.224-1.25 8.031-3.19 10.73-.98 1.35-2.12 2.423-3.36 3.151-1.25.729-2.58 1.119-3.99 1.12-1.4-.001-2.73-.391-3.98-1.12-1.86-1.091-3.51-2.963-4.68-5.373-1.17-2.407-1.87-5.341-1.87-8.508 0-4.225 1.24-8.032 3.19-10.731.98-1.35 2.12-2.423 3.36-3.151 1.25-.729 2.58-1.119 3.98-1.120001 1.41.001001 2.74.391001 3.99 1.120001 1.86 1.091 3.51 2.963 4.68 5.373 1.17 2.407 1.87 5.341 1.87 8.509h2c-.01-4.614-1.35-8.808-3.57-11.9-1.11-1.545-2.45-2.816-3.97-3.707s-3.21-1.396-5-1.395001c-1.78-.000999-3.47.504001-4.99 1.395001-2.28 1.338-4.15 3.524-5.47 6.222-1.31 2.701-2.07 5.924-2.07 9.385.01 4.613 1.34 8.807 3.57 11.899 1.11 1.545 2.45 2.816 3.97 3.707s3.21 1.396 4.99 1.395001c1.79.000999 3.48-.504001 5-1.395001 2.27-1.338 4.15-3.524 5.47-6.222 1.31-2.701 2.06-5.924 2.07-9.384z"/>
        <path d="m223.3819 578.7931v13.979"/>
        <path d="m222.3819 578.7931v13.979c0 .552.45 1 1 1 .56 0 1-.448 1-1v-13.979c0-.552-.44-1-1-1-.55 0-1 .448-1 1"/>
        <path d="m105.4219 559.3851h-1c0 4.726-1.39 8.988-3.58 12.016-1.09 1.515-2.37 2.721-3.77 3.541-1.4.821-2.91 1.262-4.49 1.263-1.59-.001-3.1-.442-4.5-1.263-2.09-1.229-3.94-3.332-5.25-6.031-1.32-2.698-2.1-5.981-2.1-9.526 0-4.726 1.39-8.987 3.58-12.015 1.09-1.515 2.37-2.721 3.77-3.541 1.4-.821 2.91-1.262 4.5-1.263001 1.58.001001 3.09.442001 4.49 1.263001 2.1 1.229 3.94 3.331 5.25 6.031 1.32 2.697 2.1 5.981 2.1 9.525h2c-.01-5.115-1.49-9.763-3.95-13.185-1.24-1.709-2.72-3.113-4.39-4.096s-3.54-1.539-5.5-1.538001c-1.97-.000999-3.84.555001-5.51 1.538001-2.51 1.476-4.59 3.892-6.04 6.881-1.46 2.99-2.3 6.564-2.3 10.4.01 5.116 1.49 9.764 3.95 13.185 1.24 1.71 2.72 3.114 4.39 4.097s3.54 1.539 5.51 1.538001c1.96.000999 3.83-.555001 5.5-1.538001 2.51-1.476 4.59-3.892 6.04-6.881 1.46-2.99 2.3-6.564 2.3-10.401z"/>
        <path d="m92.5819 577.2051v15.567"/>
        <path d="m91.5819 577.2051v15.567c0 .552.44 1 1 1 .55 0 1-.448 1-1v-15.567c0-.552-.45-1-1-1-.56 0-1 .448-1 1"/>
        <path d="m425.1319 568.7611h-1c0 3.344-.98 6.354-2.52 8.477-.76 1.062-1.66 1.901-2.63 2.469-.97.567-2 .868-3.09.869-1.08-.001-2.12-.302-3.08-.869-1.46-.85-2.75-2.318-3.68-4.219-.92-1.899-1.47-4.219-1.47-6.727 0-3.345.98-6.355 2.51-8.478.77-1.062 1.67-1.901 2.64-2.469.96-.567 2-.868 3.08-.869002 1.09.001002 2.12.302002 3.09.869002 1.45.85 2.75 2.318 3.67 4.219.93 1.899 1.48 4.22 1.48 6.728h2c0-3.734-1.08-7.131-2.89-9.647-.91-1.257-2-2.295-3.25-3.025-1.24-.729-2.63-1.145-4.1-1.144002-1.46-.000998-2.86.415002-4.1 1.144002-1.86 1.097-3.39 2.878-4.45 5.068-1.07 2.192-1.68 4.803-1.68 7.604 0 3.733 1.08 7.13 2.89 9.646.91 1.257 2 2.295 3.24 3.025 1.24.729 2.64 1.145 4.1 1.144002 1.47.000998 2.86-.415002 4.1-1.144002 1.87-1.097 3.39-2.878 4.46-5.068 1.07-2.192 1.68-4.803 1.68-7.603z"/>
        <path d="m415.8919 581.5761v11.196"/>
        <path d="m414.8919 581.5761v11.196c0 .552.45 1 1 1 .56 0 1-.448 1-1v-11.196c0-.552-.44-1-1-1-.55 0-1 .448-1 1"/>
        <path d="m647.9819 570.0361h-1c0 3.156-.93 5.996-2.37 7.996-.72 1.001-1.57 1.79-2.48 2.323s-1.88.815-2.89.816c-1.02-.001-1.99-.283-2.9-.816-1.37-.798-2.59-2.18-3.46-3.972-.87-1.79-1.39-3.98-1.39-6.347 0-3.157.93-5.997 2.37-7.997.72-1 1.57-1.79 2.48-2.322.91-.534 1.88-.816 2.9-.817 1.01.001 1.98.283 2.89.817 1.37.797 2.59 2.179 3.46 3.971.87 1.791 1.39 3.981 1.39 6.348h2c0-3.546-1.03-6.773-2.75-9.166-.86-1.195-1.9-2.183-3.08-2.878-1.19-.695-2.52-1.092-3.91-1.092-1.4 0-2.73.397-3.91 1.092-1.78 1.044-3.23 2.74-4.25 4.821-1.01 2.083-1.59 4.563-1.59 7.223 0 3.545 1.03 6.772 2.75 9.165.86 1.196 1.9 2.183 3.09 2.879 1.18.695 2.51 1.092 3.91 1.091002 1.39.000998 2.72-.396002 3.91-1.091002 1.77-1.045 3.22-2.74 4.24-4.822 1.01-2.083 1.59-4.563 1.59-7.222z"/>
        <path d="m639.2419 582.1711v10.601"/>
        <path d="m638.2419 582.1711v10.601c0 .552.44 1 1 1 .55 0 1-.448 1-1v-10.601c0-.552-.45-1-1-1-.56 0-1 .448-1 1"/>
        <path d="m704.1019 570.0361h-1c0 3.156-.93 5.996-2.38 7.996-.72 1.001-1.56 1.79-2.47 2.323s-1.88.815-2.9.816c-1.02-.001-1.99-.283-2.9-.816-1.36-.798-2.58-2.18-3.45-3.972-.87-1.79-1.39-3.98-1.39-6.347-.01-3.157.92-5.997 2.37-7.997.72-1 1.56-1.79 2.47-2.322.91-.534 1.88-.816 2.9-.817 1.02.001 1.99.283 2.9.817 1.36.797 2.58 2.179 3.45 3.971.87 1.791 1.4 3.981 1.4 6.348h1.99c0-3.546-1.02-6.773-2.74-9.166-.87-1.195-1.91-2.183-3.09-2.878s-2.51-1.092-3.91-1.092-2.73.397-3.91 1.092c-1.78 1.044-3.23 2.74-4.24 4.821-1.01 2.083-1.59 4.563-1.59 7.223 0 3.545 1.02 6.772 2.75 9.165.86 1.195 1.9 2.183 3.08 2.879 1.18.695 2.51 1.092 3.91 1.091002 1.4.000998 2.73-.396002 3.91-1.091002 1.78-1.045 3.23-2.74 4.24-4.822 1.01-2.083 1.59-4.563 1.59-7.222z"/>
        <path d="m695.3519 582.1711v10.601"/>
        <path d="m694.3519 582.1711v10.601c0 .552.45 1 1 1s1-.448 1-1v-10.601c0-.552-.45-1-1-1s-1 .448-1 1"/>
        <path d="m254.0219 383.5741c0 .299-.25.541-.55.541-.29 0-.54-.242-.54-.541 0-.3.25-.542.54-.542.3 0 .55.242.55.542"/>
        <path d="m630.4919 433.0201c0 .3-.24.542-.54.542s-.54-.242-.54-.542c0-.299.24-.541.54-.541s.54.242.54.541"/>
        <path d="m219.6419 270.5731c0 .299-.24.541-.54.541s-.54-.242-.54-.541.24-.542.54-.542.54.243.54.542"/>
        <path d="m1.6819 251.7191c0 .3-.24.542-.54.542s-.54-.242-.54-.542c0-.299.24-.541.54-.541s.54.242.54.541"/>
        <path d="m300.6419 211.9901c0 .3-.24.542-.54.542s-.54-.242-.54-.542c0-.299.24-.541.54-.541s.54.242.54.541"/>
        <path d="m52.3719 146.5321c0 .299-.24.542-.54.542s-.54-.243-.54-.542.24-.542.54-.542.54.243.54.542"/>
        <path d="m323.3119 245.9901c0 .3-.24.542-.54.542s-.55-.242-.55-.542c0-.299.25-.541.55-.541s.54.242.54.541"/>
        <path d="m386.6419 245.3241c0 .299-.24.541-.54.541s-.54-.242-.54-.541c0-.3.24-.542.54-.542s.54.242.54.542"/>
        <path d="m439.3119 309.3241c0 .299-.24.541-.54.541s-.55-.242-.55-.541.25-.542.55-.542.54.243.54.542"/>
        <path d="m389.3119 395.9901c0 .3-.24.542-.54.542s-.55-.242-.55-.542c0-.299.25-.541.55-.541s.54.242.54.541"/>
        <path d="m219.6419 196.6201c0 .299-.24.542-.54.542s-.54-.243-.54-.542.24-.542.54-.542.54.243.54.542"/>
        <path d="m604.1019 209.1991c0 .299-.24.541-.54.541s-.54-.242-.54-.541c0-.3.24-.542.54-.542s.54.242.54.542"/>
        <path d="m689.4319 184.5321c0 .299-.24.542-.54.542s-.54-.243-.54-.542.24-.542.54-.542.54.243.54.542"/>
        <path d="m794.1019 223.8651c0 .3-.24.542-.54.542s-.54-.242-.54-.542c0-.299.24-.541.54-.541s.54.242.54.541"/>
        <path d="m767.4319 261.1991c0 .299-.24.541-.54.541s-.54-.242-.54-.541c0-.3.24-.542.54-.542s.54.242.54.542"/>
        <path d="m602.1019 372.5321c0 .299-.24.542-.54.542s-.54-.243-.54-.542.24-.542.54-.542.54.243.54.542"/>
        <path d="m883.3119 208.5321c0 .299-.24.542-.54.542s-.55-.243-.55-.542.25-.542.55-.542.54.243.54.542"/>
        <path d="m861.4319 1.5321c0 .299-.24.542-.54.542s-.54-.243-.54-.542.24-.542.54-.542.54.243.54.542"/>
        <path d="m267.4919 4.9531c0 .299-.24.542-.54.542s-.54-.243-.54-.542.24-.542.54-.542.54.243.54.542"/>
        <path d="m725.8519 35.8651c0 .299-.24.542-.54.542s-.54-.243-.54-.542.24-.541.54-.541.54.242.54.541"/>
        <path d="m580.7719 255.1991c0 .299-.25.541-.55.541-.29 0-.54-.242-.54-.541 0-.3.25-.542.54-.542.3 0 .55.242.55.542"/>
        <path d="m220.1819 330.5321c0 .299-.24.542-.54.542s-.54-.243-.54-.542.24-.542.54-.542.54.243.54.542"/>
        <path d="m75.6819 365.9521c0 .299-.24.541-.54.541s-.54-.242-.54-.541.24-.542.54-.542.54.243.54.542"/>
        <path d="m75.6819 500.0051c0 .299-.24.541-.54.541s-.54-.242-.54-.541.24-.542.54-.542.54.243.54.542"/>
        <path d="m936.1219 609.7821c0 .299-.24.542-.54.542s-.54-.243-.54-.542.24-.542.54-.542.54.243.54.542"/>
        <path d="m206.1019 639.5321c0 .299-.24.542-.54.542s-.54-.243-.54-.542.24-.542.54-.542.54.243.54.542"/>
        <path d="m269.1419 677.5321c0 .299-.25.542-.54.542-.3 0-.55-.243-.55-.542s.25-.542.55-.542c.29 0 .54.243.54.542"/>
        <path d="m136.2619 663.4921c0 .299-.25.542-.55.542-.29 0-.54-.243-.54-.542s.25-.541.54-.541c.3 0 .55.242.55.541"/>
        <path d="m6.2319 582.1711c0 .299-.25.542-.55.542s-.54-.243-.54-.542.24-.542.54-.542.55.243.55.542"/>
      </g>
    </g>
    <path d="m699 434h24v23h-24z" fill="#ff9469"/>
    <path d="m732 501h24v23h-24z" fill="#66c4fa"/>
    <path d="m991 458h24v23h-24z" fill="#84e8bd"/>
    <path d="m951 383h24v23h-24z" fill="#ff9469"/>
    <path d="m1395 354h35v23h-35z" fill="#ff9469"/>
    <path d="m951 497h24v23h-24z" fill="#7b8eff"/>
  </g>
</svg>